<svg version="1.1" id="Layer_1" xmlns="http://www.w3.org/2000/svg" xmlns:xlink="http://www.w3.org/1999/xlink" x="0px" y="0px"
	 width="100%" viewBox="0 0 500 500" enable-background="new 0 0 500 500" xml:space="preserve">
<path fill="#000000" opacity="1.000000" stroke="none" 
	d="
M500.728699,249.761261 
	C501.000000,332.315277 500.975922,414.630615 501.087677,496.945740 
	C501.092163,500.249878 500.591003,501.103729 497.055847,501.101227 
	C333.091858,500.984833 169.127792,500.981323 5.163855,501.114594 
	C1.319685,501.117737 0.921442,500.033203 0.923246,496.665588 
	C1.010990,332.868195 1.013762,169.070770 0.908523,5.273434 
	C0.906249,1.734092 1.552430,0.895448 5.224835,0.898089 
	C169.022156,1.015892 332.819580,1.018746 496.616913,0.889625 
	C500.624664,0.886466 501.086090,2.080477 501.081390,5.615148 
	C500.975372,85.097557 501.000000,164.580139 501.000000,244.531342 
	C499.260254,247.295334 497.123199,246.228928 495.095337,245.641617 
	C485.308594,242.807236 475.396851,240.974243 465.139038,241.478073 
	C456.837372,241.885818 449.136230,244.219971 441.987823,248.409637 
	C440.712585,249.157059 439.113556,249.998688 439.441223,251.742050 
	C439.799408,253.648132 441.670746,253.371048 443.115326,253.508011 
	C455.506409,254.682983 467.220581,257.986176 478.035339,264.308929 
	C482.848999,267.123199 484.782288,266.722626 488.221924,262.372375 
	C490.896515,258.989746 493.649414,255.652313 495.832092,251.901489 
	C496.845947,250.159180 497.865082,248.267685 500.728699,249.761261 
z"/>
<path fill="#83C140" opacity="1.000000" stroke="none" 
	d="
M501.000000,249.583344 
	C499.139984,250.847031 498.945312,250.944595 498.377136,252.139740 
	C495.329468,258.550323 490.613129,263.675049 485.805939,268.763367 
	C484.197937,270.465424 482.914978,270.874359 480.905762,269.421356 
	C467.130493,259.459473 451.490417,255.760712 434.746613,255.855133 
	C435.813660,247.948761 437.963165,246.011230 449.449127,242.009064 
	C463.146057,237.236496 476.835480,238.329941 490.525818,241.876114 
	C493.809418,242.726654 496.999451,243.938446 500.616272,244.992050 
	C501.000000,246.388885 501.000000,247.777786 501.000000,249.583344 
z"/>
<path fill="#83C140" opacity="1.000000" stroke="none" 
	d="
M115.785629,358.767334 
	C125.185623,343.337128 135.410645,328.926605 145.540741,314.410461 
	C159.095734,294.986542 174.441391,277.295898 191.577072,261.113220 
	C198.536163,254.541168 205.694336,248.049225 214.204727,243.350174 
	C223.222427,238.371017 232.585968,239.944626 242.055496,241.475464 
	C253.194412,243.276199 264.101196,246.708328 275.606689,246.067612 
	C280.123901,245.816055 280.802673,247.261856 278.806976,251.428375 
	C276.162384,256.949615 271.245087,260.595581 266.833282,264.265717 
	C258.690735,271.039459 249.652908,276.857635 239.118729,279.352814 
	C226.322632,282.383789 213.796661,281.932159 202.226410,274.706665 
	C200.153488,273.412140 198.539627,273.898712 196.939957,275.507080 
	C188.433762,284.059784 180.277298,292.893768 172.719345,302.334991 
	C167.290070,309.117126 161.867706,315.907227 156.707764,322.884186 
	C151.478424,329.955017 146.605728,337.298553 141.772522,344.651306 
	C134.120972,356.291595 126.615059,368.027893 119.098877,379.756470 
	C118.240250,381.096313 117.710526,382.646942 116.617249,384.975250 
	C126.836105,381.358246 136.281693,378.070923 145.687485,374.673462 
	C162.667145,368.540283 179.474472,362.016266 197.103653,357.693451 
	C205.473801,355.641022 213.684555,354.087769 222.259659,353.964386 
	C231.951187,353.824951 240.093475,357.557922 247.172974,363.755463 
	C255.203354,370.785370 263.549194,377.396759 272.231171,383.584076 
	C273.514282,384.498474 275.292206,384.686096 276.753357,385.391907 
	C278.331451,386.154175 280.135101,386.673492 280.014923,389.167023 
	C279.908539,391.374390 278.301361,391.890198 276.874878,392.538635 
	C269.240814,396.008759 261.138336,398.182831 252.872284,398.843903 
	C243.512787,399.592468 233.840240,399.867462 224.890579,396.740021 
	C213.910156,392.902954 204.552231,386.239014 198.580002,375.902374 
	C196.968445,373.113098 195.112320,372.353607 192.592911,373.229950 
	C183.366013,376.439331 174.121429,379.608734 164.909393,382.856903 
	C149.420898,388.318146 134.192093,394.547455 118.366158,399.054382 
	C114.455376,400.168091 110.665703,401.707703 106.822372,403.057251 
	C105.592819,403.489014 105.242523,404.604248 104.715584,405.648102 
	C96.695305,421.535980 88.160385,437.170288 80.919922,453.442291 
	C76.824028,462.647278 72.931885,471.944244 69.041267,481.238800 
	C66.956604,486.218964 63.537636,488.184357 59.201992,486.627716 
	C55.005295,485.121002 53.889839,482.154358 55.926502,476.458527 
	C60.817848,462.779388 66.835060,449.571503 73.182037,436.517426 
	C77.598679,427.433563 82.165619,418.422791 86.859695,408.988892 
	C77.181419,411.112671 67.868774,413.255432 58.512188,415.185059 
	C46.025925,417.760162 33.382519,419.352997 20.751484,421.031189 
	C17.318268,421.487335 13.946260,422.126404 10.447022,422.006500 
	C5.514177,421.837402 3.070208,419.651764 3.031213,415.016632 
	C2.991727,410.323181 5.368297,408.569550 10.536831,407.946625 
	C23.693090,406.361084 36.850636,404.666229 49.911674,402.449585 
	C59.847164,400.763367 69.652901,398.285034 79.481804,396.009827 
	C84.544853,394.837830 89.515984,393.272919 94.564507,392.031372 
	C96.026283,391.671906 97.053726,390.801971 97.618019,389.690002 
	C102.983879,379.115692 109.505325,369.222809 115.785629,358.767334 
z"/>
<path fill="#83C140" opacity="1.000000" stroke="none" 
	d="
M405.444946,338.317627 
	C389.001251,337.310516 378.550720,326.541077 367.303619,317.097565 
	C365.727631,315.774292 367.023499,314.831116 367.349213,314.402222 
	C371.466461,308.980499 374.479706,303.195099 375.149445,296.242798 
	C375.440491,293.221283 378.766174,293.298187 380.676544,293.163300 
	C392.329712,292.340485 402.750580,294.938660 411.873413,303.156525 
	C421.057281,311.429413 430.315460,319.838531 441.852356,325.041595 
	C444.962891,326.444458 444.920532,328.938354 441.955536,330.963745 
	C435.675995,335.253113 428.239838,335.643127 421.091949,336.948059 
	C418.362854,337.446320 415.583893,337.671509 412.399597,338.098511 
	C409.959625,338.805511 407.899658,338.398621 405.444946,338.317627 
z"/>
<path fill="#83C140" opacity="1.000000" stroke="none" 
	d="
M321.010315,129.235733 
	C320.927399,127.283699 321.214417,125.634285 320.661255,124.345497 
	C319.711548,122.132812 317.482330,119.258118 318.546906,117.757088 
	C320.312531,115.267639 323.501312,113.652901 326.313782,112.064995 
	C336.103577,106.537781 346.503845,106.638863 357.106232,109.093880 
	C368.010742,111.618866 378.996460,113.371880 390.257141,113.070320 
	C395.465393,112.930832 396.136566,114.179306 393.558655,118.883171 
	C390.965179,123.615402 386.813660,127.118011 382.804382,130.461075 
	C375.312164,136.708374 367.465393,142.400497 357.601654,144.898651 
	C351.128876,146.538010 344.800140,146.056824 338.435669,145.578690 
	C334.096619,145.252716 329.872040,143.549805 325.529419,143.078751 
	C321.893311,142.684311 320.700104,141.139786 320.979248,137.684738 
	C321.192932,135.040009 321.009216,132.363159 321.010315,129.235733 
z"/>
<path fill="#83C140" opacity="1.000000" stroke="none" 
	d="
M314.499390,202.019119 
	C320.986389,203.268616 317.380341,207.549377 316.187592,208.953003 
	C307.603668,219.054489 297.605682,227.809998 285.173065,232.611099 
	C277.795319,235.460129 269.441071,234.467697 261.566711,233.635254 
	C256.291962,233.077621 251.177429,231.129181 245.930267,230.119873 
	C244.045914,229.757416 243.865952,229.363205 243.899261,227.455170 
	C244.007980,221.228317 244.848160,214.869690 242.391037,208.863419 
	C241.434494,206.525238 242.909409,205.408295 244.329544,204.338531 
	C255.255402,196.108368 267.122223,194.506714 280.507416,197.510300 
	C291.465637,199.969269 302.554291,202.949753 314.499390,202.019119 
z"/>
<path fill="#84C140" opacity="1.000000" stroke="none" 
	d="
M282.043640,374.997437 
	C272.236603,370.155029 264.372253,363.227539 256.467560,356.380402 
	C261.164459,350.870880 264.883179,344.621735 265.966949,337.150818 
	C266.232727,335.318542 267.060852,335.263733 268.486481,334.956268 
	C281.835541,332.077057 293.193542,335.811584 303.271729,344.743073 
	C312.215973,352.669678 321.306976,360.442047 331.999573,366.059753 
	C335.738770,368.024261 335.597382,369.910461 331.599152,372.038727 
	C323.087341,376.569702 313.855927,378.563385 304.324463,378.908173 
	C296.812439,379.179932 289.066772,380.045593 282.043640,374.997437 
z"/>
<path fill="#84C140" opacity="1.000000" stroke="none" 
	d="
M387.231018,351.254303 
	C381.135284,355.451752 374.232941,356.262421 367.664032,357.831573 
	C364.397430,358.611908 360.867889,358.812866 357.430634,359.119080 
	C342.985168,360.405853 332.058014,353.284363 321.526367,344.990295 
	C318.054688,342.256226 314.765656,339.290131 311.296661,336.348328 
	C317.047760,331.389984 318.353729,324.039795 320.871582,317.372589 
	C321.536926,315.610748 322.101044,315.283081 323.736847,314.934967 
	C336.962524,312.120453 348.371002,315.594879 358.122345,324.718445 
	C366.786377,332.824707 376.179901,339.936401 386.506165,345.753174 
	C389.325012,347.341034 389.833221,348.732788 387.231018,351.254303 
z"/>
<path fill="#83C140" opacity="1.000000" stroke="none" 
	d="
M349.284943,171.174057 
	C340.238312,178.777710 331.798950,186.918915 320.119904,189.277084 
	C311.173035,191.083603 302.043854,190.344025 293.089142,188.510727 
	C289.590698,187.794510 284.838043,187.744171 283.092529,185.497787 
	C281.424805,183.351517 282.723053,178.725143 283.082642,175.226440 
	C283.472748,171.430740 281.887848,168.126694 280.775116,164.764328 
	C280.106049,162.742722 280.487183,162.188828 282.059601,160.905304 
	C294.331055,150.888351 307.954254,150.721436 322.563782,154.152222 
	C331.938324,156.353622 341.406647,158.823364 351.253204,158.051407 
	C352.859558,157.925461 354.743683,157.577698 355.693420,159.456146 
	C356.642334,161.332870 355.684814,163.093643 354.691711,164.544220 
	C353.154846,166.789078 351.281952,168.803909 349.284943,171.174057 
z"/>
<path fill="#83C140" opacity="1.000000" stroke="none" 
	d="
M440.056641,309.065796 
	C437.987396,308.973785 436.420990,309.065460 435.052734,307.663177 
	C433.460693,306.031586 431.300720,304.924561 429.831940,303.209106 
	C427.551514,300.545776 422.945740,299.613953 422.412079,296.258423 
	C421.891785,292.987000 425.724884,290.552826 427.209045,287.466553 
	C429.440643,282.825958 430.647644,277.958374 430.968292,272.900970 
	C431.181580,269.536987 432.187195,268.079071 435.947632,267.926697 
	C453.000610,267.235565 467.708923,272.537170 480.479126,283.843475 
	C483.188873,286.242615 485.862793,288.698456 488.617859,291.048218 
	C490.765869,292.880219 490.888184,294.192902 488.554840,295.930206 
	C474.648712,306.283905 459.231110,311.476013 441.777252,309.826813 
	C441.327789,309.784332 440.913574,309.368896 440.056641,309.065796 
z"/>
<path fill="#83C140" opacity="1.000000" stroke="none" 
	d="
M393.548157,56.682362 
	C401.093903,57.754818 408.160034,58.894222 415.093414,60.898155 
	C418.339874,61.836472 418.516815,63.633190 417.404175,66.073845 
	C410.232483,81.805145 399.083740,93.446533 382.820312,99.989189 
	C377.803864,102.007263 373.127441,100.100296 368.328827,99.607506 
	C365.443115,99.311150 361.568512,99.292427 360.077179,97.518730 
	C358.709229,95.891731 360.088379,92.073341 359.998444,89.228661 
	C359.812592,83.350662 359.249146,77.583138 356.184723,72.268364 
	C354.819580,69.900734 355.392181,68.124733 358.216705,66.097061 
	C366.387390,60.231503 375.657440,58.389797 385.609955,56.902115 
	C388.371643,56.173428 390.758484,56.613400 393.548157,56.682362 
z"/>
<path fill="#83C140" opacity="1.000000" stroke="none" 
	d="
M206.749786,178.766464 
	C209.816101,176.468384 210.199341,172.541306 213.446640,170.637192 
	C214.880020,169.796661 216.040466,167.636292 217.787918,168.232986 
	C219.847931,168.936401 220.780441,171.481766 220.852859,173.371933 
	C221.420868,188.196091 228.245026,201.221558 232.455292,214.992859 
	C233.591660,218.709793 232.862061,222.557877 232.898621,226.346848 
	C232.914978,228.043884 231.556122,227.977127 230.399048,227.954391 
	C218.750366,227.725540 208.743286,232.232117 199.789429,239.135864 
	C196.679123,241.534042 196.103012,240.401443 194.858887,237.648026 
	C190.940460,228.975937 190.936981,219.753922 192.332092,210.865891 
	C194.165222,199.187317 199.288635,188.539444 206.749786,178.766464 
z"/>
<path fill="#83C140" opacity="1.000000" stroke="none" 
	d="
M218.354080,342.689789 
	C215.583115,343.334259 213.015625,342.427338 210.089310,343.748749 
	C209.878525,333.176056 213.743362,324.130035 219.743347,316.243164 
	C228.825531,304.304810 241.390427,296.788788 255.037766,291.003387 
	C255.927750,290.626099 256.886230,290.020660 257.767975,290.090179 
	C259.992249,290.265594 262.642792,288.934509 264.359070,291.101135 
	C266.128235,293.334534 263.682526,295.013062 262.986511,296.874359 
	C259.375916,306.529755 257.796021,316.654358 255.996780,326.724976 
	C254.800674,333.419800 254.484802,340.282898 250.055344,346.082123 
	C248.211914,348.495605 246.941681,349.141113 244.118134,347.684357 
	C238.742126,344.910797 233.146683,342.539215 226.411346,342.904480 
	C223.572235,342.131500 221.119141,342.635071 218.354080,342.689789 
z"/>
<path fill="#84C140" opacity="1.000000" stroke="none" 
	d="
M277.285889,294.327362 
	C280.826233,287.929779 286.327118,283.896332 291.817169,280.205963 
	C297.706848,276.246979 304.088898,272.907898 310.896240,270.581512 
	C313.317474,269.754059 315.951355,269.306122 318.000519,270.775879 
	C320.545349,272.601135 318.500732,275.202026 317.815765,277.114319 
	C313.785828,288.364624 311.601837,300.018341 310.071655,311.787994 
	C309.358276,317.274963 307.364685,322.122437 304.579742,326.717316 
	C303.852234,327.917633 302.911591,329.707611 300.649384,328.311646 
	C291.938873,322.936584 282.278992,322.287811 272.413483,323.027435 
	C268.657440,323.309021 267.597778,322.645233 268.841217,318.412811 
	C271.213379,310.338318 272.194641,301.833954 277.285889,294.327362 
z"/>
<path fill="#83C140" opacity="1.000000" stroke="none" 
	d="
M327.354431,302.689728 
	C323.868713,303.348938 322.496094,302.921326 323.418427,298.955566 
	C325.761047,288.882996 328.255188,279.014496 334.724213,270.564575 
	C338.500946,265.631378 343.387787,262.254333 348.503387,258.999756 
	C354.910492,254.923477 361.724548,251.751495 368.973145,249.576477 
	C372.970795,248.376923 374.859039,250.225006 373.394928,254.021088 
	C368.181519,267.538147 366.408264,281.803833 364.068512,295.936218 
	C363.315826,300.482697 360.265686,303.748535 358.576752,307.746399 
	C358.077393,308.928436 356.996948,309.114258 355.679474,308.310455 
	C349.381531,304.467834 342.519989,302.684723 335.123688,302.909973 
	C334.376099,302.932770 333.610382,302.359589 332.436920,302.089508 
	C330.636871,302.861450 329.126343,302.318420 327.354431,302.689728 
z"/>
<path fill="#83C140" opacity="1.000000" stroke="none" 
	d="
M270.726196,124.366898 
	C269.795990,116.436539 272.165710,109.605446 275.534790,103.128883 
	C278.466248,97.493553 282.272919,92.368454 285.818024,87.092163 
	C287.442230,84.674820 290.061310,83.761940 291.722137,81.427925 
	C293.129059,79.450783 296.712616,81.380547 296.948730,84.119614 
	C298.137970,97.916077 303.220032,110.590828 308.028046,123.365471 
	C309.044159,126.065292 309.548492,129.004150 309.947906,131.880203 
	C310.831268,138.241165 309.800354,139.257111 303.281097,140.033676 
	C294.368866,141.095291 286.111603,144.116135 278.656555,149.132980 
	C276.651489,150.482285 275.629639,151.362000 274.868683,147.959427 
	C273.524048,141.946701 270.963593,136.203613 270.948364,129.459686 
	C270.199585,127.656273 270.587006,126.192085 270.726196,124.366898 
z"/>
<path fill="#83C140" opacity="1.000000" stroke="none" 
	d="
M269.348450,167.715851 
	C272.539856,172.663513 270.550842,177.715179 270.809448,182.550385 
	C270.916565,184.552490 268.878448,183.911835 267.699341,183.942245 
	C256.716003,184.225449 247.132843,188.293884 238.063080,194.848236 
	C235.110962,189.460449 234.416840,183.466049 233.006958,177.681213 
	C228.822784,160.513474 236.542755,146.878616 245.816406,133.628601 
	C247.726410,130.899597 249.877457,128.425613 252.320892,126.231483 
	C254.925171,123.892944 258.583923,124.670113 258.727356,127.770676 
	C259.374054,141.746964 265.577606,154.196854 269.348450,167.715851 
z"/>
<path fill="#83C140" opacity="1.000000" stroke="none" 
	d="
M416.686951,232.690155 
	C417.527344,232.050598 417.988678,231.474640 418.578735,231.270050 
	C421.856567,230.133652 425.877869,228.495163 428.471313,230.654739 
	C431.279999,232.993515 427.897583,236.276031 426.956726,238.969025 
	C423.816071,247.958298 422.418854,257.262268 420.800781,266.586914 
	C419.788177,272.422485 419.243927,278.587067 416.001678,283.881653 
	C414.279938,286.693268 414.038300,289.851501 408.543488,286.705750 
	C401.535522,282.693695 393.056793,280.842010 384.483246,281.914276 
	C378.598419,282.650269 378.339844,282.414276 379.050293,276.311462 
	C380.225250,266.219330 383.506409,256.655548 390.633606,249.465164 
	C397.849304,242.185440 406.384399,236.249191 416.686951,232.690155 
z"/>
<path fill="#83C140" opacity="1.000000" stroke="none" 
	d="
M335.884277,38.810738 
	C335.954407,51.586479 340.732269,62.816307 344.851379,74.078400 
	C347.232147,80.587555 348.215271,86.960907 348.006378,93.727699 
	C347.938202,95.936005 346.639038,96.114815 345.035400,95.987053 
	C333.616089,95.077225 324.106384,100.010208 314.604156,106.224670 
	C308.894409,92.662476 306.273621,79.247429 311.948303,65.306999 
	C315.999542,55.354641 321.825775,46.476757 329.037659,38.525883 
	C331.149109,36.198093 333.487976,34.972195 335.884277,38.810738 
z"/>
<path fill="#83C140" opacity="1.000000" stroke="none" 
	d="
M398.822388,15.993028 
	C404.971039,14.274110 404.861908,14.277061 405.023560,20.256462 
	C405.224884,27.704386 404.540466,34.959129 402.567505,42.217144 
	C401.639252,45.631947 400.213226,46.603703 397.240265,45.937595 
	C388.154358,43.901859 379.431610,46.248558 370.643372,47.936543 
	C365.135101,48.994534 360.332886,51.748119 355.424042,54.242092 
	C354.016937,54.956989 352.684784,57.553593 351.202209,55.846951 
	C349.763550,54.190853 348.187744,51.619160 349.467682,49.117836 
	C355.198517,37.918339 363.430908,28.896921 374.699341,23.277557 
	C382.091766,19.591091 389.848816,16.333736 398.822388,15.993028 
z"/>
<path fill="#B8D895" opacity="1.000000" stroke="none" 
	d="
M218.455383,342.908997 
	C220.392532,341.462067 222.882797,341.957886 225.672333,342.611786 
	C223.614929,342.886108 221.253983,342.933075 218.455383,342.908997 
z"/>
<path fill="#B8D895" opacity="1.000000" stroke="none" 
	d="
M393.768311,56.485718 
	C391.616974,56.845589 389.262482,56.866852 386.468201,56.856251 
	C388.418365,55.237541 391.037537,56.201756 393.768311,56.485718 
z"/>
<path fill="#B8D895" opacity="1.000000" stroke="none" 
	d="
M405.221863,338.508972 
	C407.054321,338.154633 409.080139,338.133301 411.538727,338.143921 
	C409.938293,339.896088 407.608276,338.695221 405.221863,338.508972 
z"/>
<path fill="#B8D895" opacity="1.000000" stroke="none" 
	d="
M327.403931,302.908875 
	C328.283478,301.744476 329.816193,302.088409 331.649017,302.081299 
	C330.899658,303.819916 329.193146,302.656830 327.403931,302.908875 
z"/>
<path fill="#B8D895" opacity="1.000000" stroke="none" 
	d="
M270.572510,124.135605 
	C270.924988,125.376595 270.946136,126.782738 270.935547,128.609222 
	C269.212952,127.659294 270.171509,125.917755 270.572510,124.135605 
z"/>
</svg>